<mxfile host="app.diagrams.net" modified="2023-10-18T12:03:24.388Z" agent="Mozilla/5.0 (Macintosh; Intel Mac OS X 10_15_7) AppleWebKit/537.36 (KHTML, like Gecko) Chrome/117.0.0.0 Safari/537.36" version="22.0.4" etag="PpY6molN5_VAqGL2sSJ0" type="github">
  <diagram name="페이지-1" id="Qg3zSZ2OSUGFvDvbIS_5">
    <mxGraphModel>
      <root>
        <mxCell id="0" />
        <mxCell id="1" parent="0" />
      </root>
    </mxGraphModel>
  </diagram>
</mxfile>
